<?xml version="1.0" standalone="no"?>
<!DOCTYPE svg PUBLIC "-//W3C//DTD SVG 20010904//EN"
 "http://www.w3.org/TR/2001/REC-SVG-20010904/DTD/svg10.dtd">
<svg version="1.0" xmlns="http://www.w3.org/2000/svg"
 width="1080.000000pt" height="1080.000000pt" viewBox="0 0 1080.000000 1080.000000"
 preserveAspectRatio="xMidYMid meet">
<metadata>
Created by potrace 1.11, written by Peter Selinger 2001-2013
</metadata>
<g transform="translate(0.000000,1080.000000) scale(0.100000,-0.100000)"
fill="#000000" stroke="none">
<path d="M5000 9184 c-197 -19 -404 -55 -552 -95 l-40 -10 23 -25 c17 -18 30
-23 46 -19 28 7 42 -18 23 -40 -10 -12 -9 -23 4 -55 15 -38 15 -40 -2 -40 -10
0 -23 -5 -30 -12 -9 -9 -15 -9 -24 0 -9 9 -7 12 10 12 12 0 22 5 22 10 0 14
-33 13 -47 -1 -6 -6 -9 -18 -6 -26 4 -11 0 -14 -13 -11 -13 2 -20 13 -22 35
-3 31 -32 63 -58 63 -22 0 -32 -43 -17 -79 16 -39 17 -38 -22 -45 -21 -4 -24
-4 -11 2 19 8 19 9 1 16 -12 4 -24 1 -34 -9 -13 -13 -13 -15 -1 -16 8 -1 4 -4
-10 -8 -28 -8 -40 2 -40 36 0 21 -25 43 -50 43 -6 0 -15 -11 -22 -24 -9 -20
-7 -31 10 -60 l21 -35 -42 2 c-33 2 -43 -2 -52 -20 -7 -13 -15 -20 -18 -16 -4
3 -7 1 -7 -5 0 -7 -4 -12 -8 -12 -4 0 -8 16 -8 36 0 34 -14 53 -48 68 -6 3 1
15 17 28 17 15 27 34 27 51 0 15 -1 27 -2 27 -8 0 -115 -43 -141 -57 l-30 -15
24 -19 c17 -13 33 -17 57 -13 35 7 38 3 21 -28 -9 -17 -7 -28 10 -59 l22 -38
-42 2 c-26 1 -44 -3 -46 -11 -3 -8 2 -10 14 -6 10 3 5 -3 -12 -15 l-30 -21
-13 39 c-9 28 -20 41 -38 45 -29 8 -31 22 -5 44 22 19 37 72 21 72 -17 0 -160
-70 -160 -79 0 -15 50 -30 81 -24 30 6 30 5 24 -28 -5 -27 -1 -41 15 -62 23
-28 20 -31 -32 -27 -27 1 -51 -21 -30 -28 17 -5 4 -22 -18 -22 -10 0 -20 -3
-22 -7 -3 -8 -32 -25 -118 -70 l-45 -24 -9 32 c-7 21 -19 34 -38 41 -30 11
-37 32 -13 42 9 3 15 19 15 41 0 19 -2 35 -5 35 -15 0 -301 -185 -311 -202 -3
-4 6 -13 20 -20 20 -8 32 -8 51 0 35 16 35 16 35 -21 0 -36 42 -88 55 -68 3 6
14 11 23 10 14 0 14 -2 2 -6 -8 -4 -31 -18 -49 -32 -19 -14 -32 -20 -27 -13 5
8 0 12 -13 12 -12 0 -21 -7 -21 -16 0 -9 5 -12 13 -8 6 4 3 -3 -7 -15 l-20
-22 -32 36 c-40 43 -69 46 -77 8 -8 -38 34 -83 58 -63 8 7 17 11 20 9 2 -2
-15 -20 -38 -39 -26 -22 -38 -28 -34 -16 5 13 3 17 -11 14 -9 -2 -17 -10 -17
-19 0 -8 -11 -28 -24 -44 -13 -17 -21 -22 -18 -12 10 26 -19 65 -54 72 -32 7
-36 17 -14 35 17 14 20 80 4 80 -7 0 -41 -26 -76 -57 l-65 -56 27 -14 c23 -13
30 -12 51 2 30 19 48 11 40 -20 -5 -18 1 -29 23 -48 l29 -24 -36 -35 c-37 -34
-84 -70 -70 -54 4 5 -2 22 -13 37 -14 21 -29 29 -50 29 -25 0 -29 -4 -29 -29
0 -21 8 -36 29 -50 15 -11 32 -17 37 -13 4 4 -3 -5 -16 -20 -15 -16 -27 -22
-31 -16 -11 17 -30 -2 -27 -25 4 -30 -36 -36 -52 -8 -7 14 -21 21 -40 21 -33
0 -37 10 -16 43 11 18 11 27 2 50 l-13 28 -63 -68 -64 -68 32 -9 c26 -7 36 -5
51 9 24 21 41 12 41 -21 0 -16 10 -30 31 -43 l30 -18 -47 -51 -48 -51 -18 29
c-13 23 -25 30 -48 30 -31 0 -39 17 -19 37 12 12 3 73 -11 73 -5 0 -34 -30
-66 -67 l-57 -67 27 -9 c20 -7 33 -4 52 8 28 18 40 13 46 -20 1 -11 18 -27 35
-36 31 -16 32 -17 15 -33 -10 -9 -26 -16 -35 -16 -19 0 -22 -11 -7 -26 7 -7 4
-16 -10 -29 -19 -17 -20 -17 -41 9 -15 19 -30 26 -55 26 -37 0 -41 7 -20 35
10 14 11 25 2 47 -6 15 -13 28 -16 28 -7 0 -110 -136 -110 -144 0 -14 65 -4
82 11 17 15 20 15 28 3 6 -8 10 -22 10 -31 0 -20 44 -41 67 -32 14 6 15 4 5
-8 -7 -8 -21 -25 -33 -39 -11 -14 -18 -19 -14 -12 4 7 0 12 -9 12 -18 0 -21
-11 -7 -25 6 -6 0 -21 -17 -40 -15 -17 -23 -25 -18 -18 14 21 -22 53 -61 53
-34 0 -40 9 -23 39 9 18 -7 71 -21 71 -9 0 -104 -139 -98 -144 18 -16 50 -15
66 3 24 29 40 26 48 -9 4 -16 12 -30 19 -30 7 0 21 -6 31 -14 18 -13 18 -15 2
-30 -9 -10 -17 -23 -17 -29 0 -7 -8 -22 -18 -35 l-18 -23 -26 20 c-14 12 -40
21 -57 21 -32 0 -39 13 -22 39 9 15 -15 78 -25 68 -8 -7 -94 -148 -94 -153 0
-2 15 -4 33 -4 21 0 36 7 45 20 17 27 30 25 38 -5 4 -16 20 -33 41 -44 l36
-18 -32 -22 c-25 -18 -30 -27 -25 -47 5 -19 2 -24 -14 -24 -11 0 -25 7 -32 15
-9 11 -22 14 -47 9 l-34 -6 6 35 c5 25 2 42 -8 57 -15 21 -16 20 -56 -52 -22
-40 -41 -78 -41 -83 0 -20 52 -10 70 13 24 29 29 28 41 -7 9 -26 32 -40 65
-41 6 0 16 10 23 23 11 22 11 22 5 -3 -4 -14 -14 -33 -23 -44 -9 -10 -15 -21
-13 -24 2 -4 -2 -8 -9 -11 -7 -2 -9 1 -5 8 4 6 2 11 -4 11 -15 0 -26 -33 -12
-38 8 -2 8 -10 1 -26 l-11 -23 -25 23 c-19 18 -32 21 -60 17 -35 -6 -35 -6
-29 25 7 29 -9 72 -27 72 -7 0 -77 -144 -77 -160 0 -17 57 4 77 29 l23 26 12
-32 c8 -23 20 -33 42 -37 19 -4 33 -2 37 6 4 7 11 9 16 4 4 -4 0 -12 -10 -17
-9 -6 -17 -18 -17 -27 0 -9 -5 -24 -11 -32 -9 -13 -10 -12 -5 3 3 9 1 17 -5
17 -14 0 -25 -33 -12 -37 9 -3 6 -53 -4 -53 -2 0 -14 9 -26 20 -17 17 -30 20
-60 14 l-38 -6 6 34 c5 27 2 38 -14 52 -12 11 -23 17 -24 15 -9 -11 -66 -163
-63 -166 10 -10 59 12 73 33 12 19 19 22 29 13 8 -6 14 -17 14 -24 0 -14 57
-38 71 -29 22 13 6 -16 -18 -34 -20 -14 -24 -24 -18 -38 8 -18 7 -54 0 -63 -2
-1 -14 7 -27 18 -18 18 -30 21 -61 15 -39 -6 -39 -6 -33 23 5 23 1 34 -17 51
l-24 23 -27 -76 c-15 -42 -29 -82 -32 -89 -9 -24 49 -6 73 23 l23 26 21 -27
c14 -19 30 -28 50 -28 27 0 28 -2 22 -32 -3 -18 -10 -40 -15 -48 -5 -9 -6 -4
-1 15 6 27 5 29 -10 17 -12 -11 -14 -19 -5 -43 13 -39 7 -44 -31 -24 -23 11
-36 13 -50 5 -32 -17 -41 -12 -41 23 0 21 -8 41 -20 52 -11 10 -22 16 -23 14
-2 -2 -11 -33 -21 -69 -10 -36 -21 -73 -23 -82 -4 -14 1 -18 21 -18 18 0 30 8
41 30 19 37 32 38 45 5 8 -20 16 -25 44 -25 19 0 36 6 39 13 2 7 8 8 13 3 5
-5 4 -11 -3 -13 -7 -3 -13 -11 -13 -20 0 -8 -10 -23 -22 -33 -19 -15 -21 -21
-11 -31 11 -11 13 -9 13 6 0 10 2 16 5 13 4 -3 3 -17 -1 -32 -6 -23 -10 -26
-53 -24 -25 1 -54 -1 -63 -6 -15 -7 -18 -3 -18 26 0 34 -32 79 -46 65 -17 -17
-84 -353 -99 -499 l-7 -68 31 11 c19 7 31 18 31 29 0 10 6 23 14 29 11 9 17 6
30 -14 13 -20 22 -24 41 -19 28 7 46 -19 26 -39 -15 -15 -14 -47 2 -47 16 0
14 -703 -2 -708 -17 -6 -13 -36 9 -60 11 -12 20 -29 20 -39 -1 -17 -1 -17 -11
0 -16 27 -64 22 -88 -10 l-20 -28 -12 31 c-7 17 -25 38 -41 47 -28 16 -28 16
-28 -11 0 -47 39 -292 61 -386 43 -183 36 -168 64 -150 19 12 25 25 25 51 0
30 3 34 17 27 10 -5 39 -7 66 -6 51 2 52 1 36 -29 -11 -22 5 -54 22 -43 5 3 9
-4 9 -14 0 -20 -18 -32 -49 -32 -10 0 -23 -12 -30 -27 l-13 -28 -26 31 c-26
31 -72 51 -72 33 0 -10 42 -161 47 -168 2 -2 12 4 23 14 12 11 20 31 20 52 0
35 9 40 40 23 23 -12 70 6 70 27 0 7 5 13 10 13 6 0 10 -9 10 -19 0 -11 3 -27
7 -37 4 -12 3 -15 -5 -10 -8 5 -12 0 -12 -13 0 -25 20 -39 21 -14 0 10 5 5 10
-12 9 -32 -1 -45 -37 -45 -12 0 -25 -10 -32 -25 -15 -31 -29 -32 -43 -1 -8 16
-22 26 -43 29 -17 2 -32 4 -33 3 -2 -1 11 -42 29 -89 l31 -88 24 23 c19 18 22
28 17 56 -6 32 -5 34 12 27 42 -17 54 -16 82 4 l30 21 4 -25 c3 -14 1 -25 -3
-25 -5 0 -9 -9 -9 -20 0 -18 10 -25 33 -21 4 0 7 -5 7 -13 0 -8 7 -22 16 -31
9 -9 14 -19 10 -22 -3 -4 -12 1 -19 10 -17 22 -62 11 -76 -19 -13 -29 -37 -31
-46 -5 -5 17 -61 38 -72 27 -4 -4 54 -154 63 -165 2 -2 13 4 25 15 15 14 19
26 15 49 -7 38 0 48 26 34 21 -11 78 5 78 22 0 5 5 9 11 9 6 0 9 -17 7 -42 -2
-33 1 -43 12 -43 17 0 34 -21 26 -34 -3 -5 -19 -11 -35 -14 -20 -4 -31 -14
-35 -32 -8 -30 -20 -32 -38 -6 -12 17 -78 35 -78 21 0 -14 74 -163 137 -279
l35 -63 18 28 c13 20 16 33 9 45 -17 33 -11 42 24 35 26 -5 38 -1 59 18 31 30
40 24 32 -21 -6 -33 -5 -34 36 -37 30 -2 21 -32 -15 -49 -22 -11 -35 -24 -35
-36 0 -30 -21 -37 -41 -13 -11 14 -29 22 -48 22 -17 0 -31 -2 -31 -4 0 -9 92
-156 98 -156 15 0 31 53 22 71 -17 30 -11 39 24 39 18 0 39 7 46 15 17 21 47
19 60 -4 15 -29 12 -38 -5 -15 -14 19 -14 19 -15 -3 0 -24 13 -35 41 -37 29
-2 25 -19 -9 -36 -19 -9 -32 -25 -36 -42 -6 -32 -25 -36 -47 -10 -12 13 -25
18 -47 14 l-31 -4 50 -74 c27 -41 53 -74 58 -74 14 0 30 46 20 61 -5 8 -9 22
-9 33 0 15 5 17 27 13 20 -4 33 2 53 22 l26 26 23 -27 c16 -20 18 -26 7 -22
-11 4 -16 1 -16 -10 0 -15 5 -18 39 -20 27 -2 23 -26 -8 -43 -17 -10 -31 -25
-31 -33 0 -8 -4 -22 -10 -30 -8 -12 -11 -12 -28 3 -18 16 -82 24 -82 10 0 -9
103 -143 110 -143 3 0 10 13 16 28 9 22 8 33 -2 47 -21 28 -17 35 18 35 19 0
41 9 54 21 21 20 22 23 8 48 l-16 26 19 -24 c10 -13 31 -36 48 -52 31 -30 25
-41 -7 -12 -17 15 -18 15 -18 -1 0 -9 12 -22 28 -29 42 -18 82 -48 82 -60 0
-6 -10 -2 -21 10 -20 20 -23 20 -50 4 -18 -10 -29 -24 -29 -38 0 -30 -15 -37
-42 -19 -22 14 -78 12 -78 -3 0 -3 27 -35 59 -71 l59 -65 12 26 c9 20 9 32 1
47 -17 33 -13 42 19 42 18 0 33 6 36 15 11 27 40 37 55 18 12 -14 12 -16 0 -8
-11 6 -13 4 -8 -9 4 -10 7 -21 7 -26 0 -4 14 -10 30 -13 37 -8 38 -19 5 -41
-15 -10 -25 -26 -25 -41 0 -32 -17 -41 -40 -20 -13 12 -27 15 -49 10 -17 -4
-31 -10 -31 -14 0 -3 28 -35 63 -69 l63 -62 11 29 c8 24 8 34 -3 48 -21 28
-17 43 12 43 16 0 36 11 50 25 25 27 47 33 38 11 -9 -23 15 -56 39 -56 13 0
32 -7 43 -15 12 -10 14 -13 3 -10 -25 9 -69 -32 -69 -66 0 -33 -2 -34 -34 -14
-24 16 -76 12 -76 -5 0 -14 188 -184 315 -285 l120 -95 8 31 c7 26 4 36 -14
55 l-22 24 31 11 c28 10 62 46 62 67 0 5 -11 15 -25 22 -22 12 -28 11 -50 -10
-19 -18 -23 -29 -18 -53 6 -28 5 -30 -18 -22 -32 10 -60 10 -81 1 -15 -7 -18
-3 -18 26 0 19 -7 43 -15 54 -20 27 -19 32 12 36 18 2 35 15 50 36 l22 34 15
-37 c11 -24 21 -36 33 -34 42 5 108 -40 116 -79 6 -32 45 -51 59 -29 6 9 10 9
20 -1 9 -9 6 -18 -15 -40 -18 -19 -27 -39 -27 -60 0 -36 0 -36 -32 -21 -26 11
-83 -4 -73 -20 9 -16 295 -201 309 -201 2 0 6 12 9 27 4 22 0 33 -21 50 l-27
22 32 12 c37 15 68 70 50 88 -8 8 -8 11 1 11 7 0 15 -8 18 -18 16 -49 28 -62
58 -62 28 0 29 1 10 15 -19 14 -19 14 2 15 11 0 29 9 39 20 10 12 35 30 54 42
20 12 39 28 44 34 4 7 35 18 68 25 34 7 73 22 88 34 28 23 101 46 172 54 4 1
6 9 5 18 -1 12 9 20 29 24 49 11 133 10 140 -2 10 -15 4 -18 -61 -29 -98 -17
-104 -20 -104 -38 0 -11 -22 -30 -60 -50 -33 -19 -58 -38 -55 -43 7 -10 114
-12 139 -3 9 3 16 13 16 20 0 22 44 34 119 34 60 0 67 -2 68 -20 2 -25 -29
-46 -79 -55 -21 -4 -51 -20 -67 -35 -16 -16 -47 -34 -68 -39 -47 -13 -112 -71
-143 -129 -22 -40 -40 -54 -40 -32 0 6 -7 10 -15 10 -8 0 -15 -4 -15 -8 0 -17
25 -32 55 -32 24 0 27 2 15 11 -12 9 -12 10 3 5 10 -3 20 -6 23 -6 6 0 -9 -35
-23 -51 -10 -12 -11 -23 -2 -47 10 -28 13 -30 35 -20 30 14 61 78 43 88 -20
13 81 107 146 135 32 14 66 32 75 39 8 7 37 21 65 30 27 9 65 27 85 40 19 14
55 30 80 36 25 7 59 22 76 35 33 26 88 43 148 47 31 2 42 -3 58 -22 20 -27
146 -165 163 -180 85 -75 120 -102 200 -157 22 -15 52 -38 66 -51 15 -13 40
-31 56 -40 48 -27 113 -75 144 -105 38 -38 88 -57 156 -59 35 -1 45 -3 26 -5
-18 -2 -33 -8 -33 -13 0 -15 38 -22 60 -10 27 14 40 5 40 -27 0 -15 10 -37 22
-50 l21 -23 -32 -6 c-21 -4 -37 -16 -43 -30 -14 -30 -25 -30 -54 1 -13 14 -32
25 -44 25 -24 0 -26 13 -5 30 9 7 15 29 15 55 0 42 -1 43 -37 47 -33 4 -63 4
-199 -1 -29 -1 -30 -3 -30 -41 1 -21 7 -45 14 -52 19 -19 14 -38 -12 -38 -14
0 -30 -10 -40 -25 -9 -14 -21 -25 -26 -25 -6 0 -16 11 -22 25 -6 14 -18 25
-27 25 -9 0 -23 5 -31 10 -12 8 -11 13 8 33 12 13 22 35 22 50 0 28 18 35 37
16 7 -7 23 -9 37 -5 53 13 23 24 -81 31 -60 4 -160 13 -223 21 -140 17 -140
17 -115 -1 13 -10 30 -13 53 -9 34 7 34 7 27 -25 -5 -22 -2 -39 9 -55 18 -28
12 -36 -23 -36 -15 0 -31 -8 -39 -20 -17 -27 -39 -25 -46 4 -3 14 -19 29 -37
37 l-32 13 26 22 c15 13 27 34 29 55 3 30 0 34 -30 43 -18 5 -35 6 -38 3 -7
-6 -8 -72 -3 -102 3 -15 -2 -21 -21 -23 -14 -2 -35 -13 -48 -25 l-22 -21 -12
32 c-7 18 -15 32 -18 32 -4 0 -15 7 -26 15 -19 15 -19 15 2 32 12 10 24 34 28
53 l6 35 -98 28 c-158 44 -155 44 -168 3 -6 -19 -7 -41 -3 -48 5 -7 9 -21 9
-30 0 -14 -6 -16 -27 -13 -33 6 -86 -31 -65 -44 16 -9 162 -44 167 -40 2 2 1
16 -2 31 -4 19 -14 30 -36 38 l-32 11 33 25 c20 16 32 34 32 50 0 27 21 32 40
9 7 -8 28 -15 47 -15 30 0 34 -3 28 -18 -9 -20 -9 -36 1 -76 6 -27 6 -28 -23
-22 -23 5 -34 2 -52 -18 l-23 -25 53 -15 c96 -29 352 -75 499 -90 180 -18 420
-31 420 -22 0 18 -34 55 -56 60 -28 7 -31 27 -8 47 9 8 14 22 11 37 -5 29 13
38 43 22 16 -9 25 -9 33 -1 6 6 20 11 30 11 16 0 18 -5 14 -28 -4 -19 1 -34
16 -50 18 -20 19 -24 7 -32 -8 -5 -22 -10 -31 -10 -15 0 -49 -39 -49 -56 0 -9
226 3 418 22 146 14 446 69 535 98 23 8 58 17 77 21 52 10 304 95 314 105 15
15 -24 39 -61 40 -46 0 -103 -36 -103 -66 0 -27 -21 -32 -40 -9 -7 8 -28 15
-47 15 -30 0 -34 3 -27 18 9 21 9 49 -1 81 -8 23 -6 24 27 17 28 -5 38 -2 54
15 19 22 19 22 -6 15 -14 -4 -50 -12 -80 -18 -30 -6 -104 -26 -165 -44 -60
-18 -146 -39 -189 -48 -44 -9 -81 -18 -83 -19 -9 -10 13 -79 28 -88 27 -14 23
-29 -10 -40 -18 -6 -32 -20 -35 -35 -8 -29 -27 -31 -44 -4 -8 13 -23 20 -42
20 -33 0 -38 14 -15 44 10 13 11 25 4 43 -13 35 -13 36 26 29 25 -5 42 -2 58
10 21 16 20 16 -28 10 -27 -3 -77 -8 -110 -11 -57 -5 -59 -5 -30 9 17 8 40 26
52 40 13 14 29 26 37 26 8 0 34 15 58 33 24 18 57 39 75 46 17 7 39 22 49 32
10 11 37 28 61 39 24 11 58 30 74 42 47 35 202 190 222 220 10 16 22 28 28 28
6 0 24 9 40 21 28 20 31 20 48 5 10 -9 40 -23 68 -31 28 -8 62 -24 76 -35 14
-11 45 -27 69 -36 24 -8 59 -26 79 -39 41 -27 114 -49 135 -41 8 3 14 2 14 -3
0 -8 -159 -85 -215 -104 -16 -6 -39 -16 -50 -23 -11 -6 -51 -22 -90 -34 -38
-12 -73 -25 -77 -29 -15 -13 12 -78 37 -89 23 -11 27 -9 35 14 13 32 13 51 0
59 -23 14 -10 35 22 35 17 0 39 7 49 16 21 19 39 11 39 -16 0 -12 13 -26 32
-36 l32 -17 -26 -21 c-14 -11 -28 -34 -32 -50 -7 -27 -6 -28 20 -22 65 17 504
232 504 247 0 14 -58 30 -85 23 -27 -7 -28 -6 -21 28 5 26 2 39 -9 48 -24 20
-18 40 12 40 18 0 35 10 50 28 l22 27 13 -32 c8 -22 21 -34 40 -38 33 -8 35
-16 8 -40 -18 -16 -29 -75 -14 -75 12 0 282 169 314 197 3 3 -4 11 -15 19 -18
14 -31 14 -75 3 -11 -3 -15 5 -16 30 -1 20 -8 37 -17 43 -10 5 -17 16 -17 23
0 8 -6 15 -12 15 -15 0 32 40 47 40 6 0 -1 -10 -15 -21 l-25 -21 30 7 c17 3
36 15 44 25 17 25 38 25 46 1 3 -11 19 -22 35 -26 34 -7 37 -20 14 -46 -9 -10
-14 -30 -12 -49 l3 -33 74 58 c68 54 72 59 55 72 -21 15 -50 17 -59 3 -14 -22
-35 -10 -35 21 0 20 -8 38 -22 50 -20 16 -21 20 -8 29 8 5 22 10 31 10 9 0 21
11 27 25 14 30 26 32 44 6 8 -11 26 -23 41 -26 31 -8 34 -21 11 -46 -11 -12
-13 -25 -7 -48 l8 -30 65 55 c36 30 66 58 68 63 1 4 -9 13 -23 19 -21 10 -30
9 -48 -3 -31 -21 -37 -19 -37 15 0 18 -10 39 -26 55 -29 29 -25 44 11 37 22
-4 28 1 38 27 14 38 22 39 43 6 11 -17 25 -25 45 -25 33 0 35 -7 14 -37 -15
-21 -12 -73 4 -73 16 1 301 292 372 382 l29 36 -30 7 c-22 5 -37 2 -49 -9 -25
-23 -41 -20 -41 9 0 15 -9 31 -25 41 -31 21 -32 31 0 46 14 6 27 23 30 39 8
34 16 36 40 9 10 -11 31 -20 47 -20 30 0 34 -10 18 -40 -10 -18 5 -71 19 -69
3 0 30 33 59 72 l53 72 -28 6 c-19 4 -34 0 -49 -13 -28 -25 -44 -23 -44 7 0
15 -9 31 -25 41 -14 9 -25 22 -25 30 0 8 -6 11 -17 7 -11 -4 -14 -3 -9 6 5 7
15 10 23 7 25 -10 53 12 53 42 l-1 27 -19 -24 c-26 -30 -26 -14 0 19 11 14 20
19 20 13 0 -7 6 -13 14 -13 7 0 19 -7 26 -15 7 -8 28 -15 46 -15 38 0 38 0 22
-35 -9 -20 -8 -31 2 -50 7 -14 16 -25 19 -25 10 0 201 296 201 312 0 17 -53 7
-79 -15 -33 -28 -42 -74 -26 -126 8 -22 6 -24 -21 -18 -21 4 -35 0 -51 -15
-24 -22 -43 -17 -43 12 0 12 -13 26 -32 36 l-32 16 32 27 c19 15 32 35 32 49
0 26 12 28 34 7 16 -17 62 -20 71 -5 12 19 -7 60 -31 66 -29 7 -31 29 -4 44
13 7 20 21 20 39 0 39 9 43 39 22 18 -13 36 -17 55 -14 28 6 29 5 22 -28 -4
-24 -1 -41 10 -57 15 -22 17 -23 29 -5 47 69 235 471 235 504 0 20 -54 -1 -76
-29 l-21 -26 -17 32 c-10 19 -24 32 -36 32 -11 0 -24 10 -31 21 -6 12 -7 19
-1 15 5 -3 17 3 26 12 12 15 14 25 6 52 -5 18 -7 36 -5 39 3 2 5 0 5 -5 0 -18
65 -35 94 -24 25 9 26 8 26 -29 0 -40 31 -83 45 -62 7 13 55 151 55 161 0 4
-14 5 -31 2 -20 -3 -34 -13 -41 -28 -14 -30 -32 -31 -46 0 -7 17 -22 25 -51
30 -23 3 -41 11 -41 17 0 6 6 9 14 6 14 -6 46 26 46 46 0 6 -7 25 -15 40 -10
19 -11 35 -5 50 8 20 9 19 9 -8 1 -26 7 -33 36 -44 25 -9 40 -9 55 -1 28 15
40 5 34 -28 -4 -20 0 -33 15 -46 12 -11 24 -16 28 -12 10 10 52 164 47 169
-13 13 -57 -9 -71 -36 l-16 -31 -21 26 c-11 14 -33 28 -48 32 -31 7 -35 18
-13 36 8 7 15 28 15 47 l0 35 39 -7 c24 -4 42 -2 46 4 14 24 35 11 35 -22 0
-21 8 -41 20 -52 19 -17 20 -17 30 11 21 55 80 372 97 519 23 204 23 662 0
865 -9 80 -17 149 -17 153 0 4 -13 -2 -30 -15 -21 -15 -30 -30 -30 -50 0 -31
-15 -35 -44 -13 -13 10 -25 11 -43 4 -35 -13 -36 -12 -29 26 4 21 2 42 -6 55
-11 17 -11 22 2 30 8 5 20 8 27 5 7 -2 22 8 33 23 21 26 22 26 36 8 8 -11 14
-25 14 -32 0 -12 48 -29 58 -19 6 5 -54 304 -70 344 l-9 24 -23 -22 c-17 -16
-21 -29 -18 -53 4 -28 3 -30 -14 -22 -11 4 -38 8 -62 7 -41 -1 -43 1 -40 26 1
15 -5 37 -14 50 -20 29 -15 41 16 41 14 0 30 10 41 26 l17 26 28 -31 c31 -34
60 -41 60 -15 0 22 -39 154 -46 154 -3 0 -14 -9 -25 -19 -16 -15 -19 -26 -14
-50 7 -34 -2 -39 -36 -20 -31 16 -87 -8 -92 -40 -2 -14 -3 -12 -1 4 2 17 6 44
9 61 5 21 2 34 -9 43 -24 20 -20 41 9 41 17 0 29 9 40 30 14 28 14 30 -6 41
-17 9 -31 8 -60 -1 -22 -7 -39 -18 -39 -23 0 -6 -2 -8 -4 -6 -3 3 -1 21 3 41
7 30 5 40 -8 53 -10 8 -21 12 -26 8 -4 -5 -3 2 4 14 6 12 21 23 33 25 13 2 29
15 37 32 l14 30 21 -26 c20 -24 76 -44 76 -27 0 14 -52 143 -62 154 -16 17
-45 -33 -40 -67 4 -29 3 -31 -24 -25 -33 7 -94 -11 -94 -28 0 -5 -5 -3 -10 5
-5 8 -10 20 -10 25 0 6 5 3 10 -5 7 -11 10 -6 10 20 0 24 -6 39 -20 48 -28 17
-25 29 9 37 20 4 33 16 42 37 l13 31 21 -25 c12 -14 35 -27 52 -30 30 -4 31
-3 22 21 -12 30 -106 216 -142 279 l-24 43 -17 -26 c-12 -18 -15 -36 -11 -57
7 -28 5 -30 -22 -27 -17 2 -41 -4 -55 -13 -23 -15 -27 -16 -32 -2 -3 9 -6 22
-6 30 0 8 -12 25 -26 38 l-27 22 31 13 c19 8 35 24 41 44 l11 30 26 -24 c21
-20 58 -27 72 -15 8 8 -187 316 -201 316 -16 0 -28 -54 -18 -78 15 -32 15 -32
-23 -32 -18 0 -39 -7 -46 -15 -7 -8 -19 -15 -26 -15 -8 0 -14 -5 -14 -11 0 -5
-4 -7 -10 -4 -5 3 -10 11 -10 16 0 6 5 7 10 4 16 -10 11 32 -6 49 -8 9 -24 16
-33 16 -10 0 -25 8 -32 18 -11 14 -11 15 0 5 19 -17 81 31 81 62 0 33 -47 41
-78 12 -20 -18 -24 -19 -32 -7 -5 8 -10 20 -10 27 0 14 -40 44 -51 37 -4 -2
-11 1 -15 8 -4 7 -4 10 0 7 12 -11 66 44 66 68 0 27 12 29 35 7 11 -11 25 -14
45 -10 36 7 44 -4 28 -39 -9 -19 -9 -28 0 -37 7 -7 12 -20 12 -29 0 -10 9 -21
20 -24 11 -3 20 -10 20 -15 0 -13 27 -19 55 -11 l28 7 -100 125 c-99 124 -269
309 -283 309 -15 0 -18 -55 -4 -74 20 -30 18 -36 -15 -36 -17 0 -36 -8 -43
-17 -24 -33 -43 -43 -58 -31 -12 8 -12 9 3 4 20 -6 20 -6 7 29 -5 14 -21 30
-35 35 -30 11 -32 26 -5 40 13 7 20 21 20 39 0 38 8 43 41 24 22 -13 33 -14
53 -5 l25 11 -63 61 c-34 33 -65 60 -68 60 -15 0 -18 -54 -3 -76 20 -31 19
-34 -8 -34 -13 0 -34 -11 -47 -25 -29 -31 -38 -31 -46 0 -6 24 -36 41 -53 30
-23 -13 -20 17 3 39 17 15 26 34 26 55 0 35 6 38 37 16 16 -11 28 -13 47 -5
14 5 26 13 25 17 0 8 -113 106 -128 111 -16 5 -20 -52 -5 -69 22 -24 17 -39
-15 -45 -16 -4 -33 -16 -39 -28 -9 -19 -44 -34 -39 -17 0 3 -2 16 -7 29 -5 16
-15 22 -37 22 -34 0 -39 23 -9 42 13 9 20 24 20 45 0 32 21 46 35 23 9 -14 38
-12 59 3 17 12 13 18 -48 65 -36 29 -70 52 -76 52 -16 0 -12 -67 5 -74 25 -9
17 -34 -14 -41 -16 -3 -33 -16 -39 -30 -7 -14 -16 -25 -22 -25 -5 0 -13 -1
-17 -2 -5 -2 -8 4 -9 12 -2 35 -5 39 -34 45 -35 8 -37 15 -10 40 13 12 18 25
14 41 -8 33 3 47 27 33 24 -12 79 -2 79 14 0 7 -33 33 -73 59 l-72 48 -6 -28
c-4 -18 0 -34 13 -48 25 -29 23 -41 -12 -47 -16 -4 -30 -12 -30 -18 0 -14 -40
-65 -41 -53 -1 5 -1 13 0 17 1 4 -4 17 -10 28 -8 16 -18 20 -40 17 -32 -5 -37
7 -14 38 8 10 15 34 15 53 0 33 1 33 35 27 42 -8 84 14 63 32 -14 11 -138 82
-144 82 -13 0 -1 -60 16 -75 26 -24 25 -33 -5 -41 -14 -3 -32 -19 -40 -35 -14
-26 -38 -50 -33 -32 1 4 -4 18 -11 31 -10 20 -19 23 -58 20 -32 -2 -48 1 -51
10 -3 11 0 12 17 3 17 -9 21 -9 21 2 0 8 7 20 15 27 11 9 14 22 9 47 l-7 35
39 -6 c27 -4 45 -1 58 9 11 8 18 16 15 18 -2 2 -39 23 -81 46 l-78 42 0 -35
c0 -25 6 -38 20 -46 27 -14 25 -29 -4 -40 -14 -5 -32 -25 -41 -44 -10 -20 -22
-36 -27 -36 -5 0 -7 4 -4 8 3 5 -2 18 -10 30 -16 23 -66 31 -60 10 1 -7 1 -10
-1 -5 -3 4 -12 7 -21 7 -10 0 -13 3 -7 8 25 18 42 59 37 91 -4 32 -4 33 25 27
18 -4 40 -1 57 8 l28 14 -23 16 c-23 15 -135 66 -144 66 -3 0 -5 -12 -5 -27 0
-18 10 -35 27 -49 l27 -21 -28 -15 c-15 -8 -36 -32 -45 -54 l-17 -39 -15 30
c-11 23 -22 31 -47 33 -32 3 -43 24 -21 37 6 5 8 22 4 48 l-7 40 32 -6 c24 -5
38 -2 57 12 22 18 23 20 6 29 -54 28 -343 135 -349 129 -10 -10 13 -61 32 -69
13 -6 24 -14 24 -19 0 -4 17 -9 38 -11 26 -4 44 0 61 14 26 20 41 11 41 -24 0
-10 11 -25 25 -34 32 -21 31 -29 -4 -44 -23 -9 -30 -20 -35 -51 -5 -33 -9 -37
-20 -27 -8 7 -12 15 -10 17 2 2 -1 10 -7 18 -12 14 -64 19 -55 4 3 -4 -6 -6
-20 -3 -14 2 -22 7 -17 11 32 24 40 111 9 111 -21 0 -56 -31 -56 -49 0 -23
-29 -63 -30 -40 0 9 -8 23 -18 33 -15 13 -24 14 -50 5 -17 -6 -37 -9 -44 -6
-9 4 -8 6 2 6 23 1 44 65 30 91 -13 24 -19 25 -48 4 -12 -8 -22 -26 -22 -40 0
-28 -16 -31 -42 -7 -16 14 -24 14 -59 4 -23 -7 -44 -10 -47 -7 -3 3 1 6 9 6
22 0 38 63 23 92 -16 30 -8 41 25 33 20 -4 32 0 46 15 26 29 21 31 -148 68
-230 50 -209 48 -201 15 9 -39 13 -43 34 -43 29 0 36 -21 12 -41 -12 -9 -22
-26 -22 -37 0 -37 -11 -52 -39 -51 -25 2 -25 2 -2 6 23 5 23 5 2 19 -13 9 -30
12 -48 8 -25 -7 -25 -8 -8 -15 17 -7 17 -8 -6 -8 -26 -1 -26 0 -18 42 5 31 4
46 -7 58 -23 25 -16 39 19 39 22 1 37 8 50 25 9 13 14 26 10 28 -5 3 -47 8
-95 12 l-87 7 12 -31 c6 -17 18 -31 27 -31 8 0 22 -5 30 -10 13 -9 12 -13 -8
-30 -29 -24 -38 -87 -13 -93 11 -3 9 -5 -6 -6 -13 0 -23 4 -23 9 0 16 -46 34
-67 26 -15 -6 -15 -8 -3 -16 11 -7 4 -10 -24 -10 -34 0 -37 2 -24 13 23 18 31
72 13 87 -25 21 -18 40 14 40 19 0 34 8 45 24 9 14 12 27 8 29 -4 3 -47 8 -95
12 l-89 7 16 -30 c8 -16 27 -32 41 -36 30 -8 32 -19 5 -46 -11 -11 -17 -26
-14 -35 4 -8 3 -22 0 -30 -5 -14 -9 -14 -31 1 -20 13 -31 14 -48 6 l-22 -10
25 -10 c21 -9 16 -11 -35 -10 -54 0 -57 1 -32 11 23 9 27 17 27 48 0 20 -7 42
-15 49 -23 19 -18 27 18 34 22 4 38 15 45 30 l11 25 -87 3 c-48 2 -90 2 -94 0
-16 -7 25 -51 53 -57 34 -8 36 -16 9 -40 -15 -14 -18 -27 -15 -61 l5 -44 -65
0 -65 0 6 44 c3 31 0 46 -11 56 -19 16 -19 40 0 40 17 0 65 46 65 62 0 13
-125 7 -380 -18z m214 -19 c10 -16 26 -25 41 -25 28 0 33 -21 10 -40 -20 -16
-16 -80 5 -80 8 0 22 -5 30 -10 10 -7 -6 -9 -55 -9 -38 1 -61 3 -50 6 32 8 39
20 15 28 -14 5 -28 1 -41 -11 -16 -15 -22 -16 -28 -5 -5 7 -6 22 -3 33 3 11
-5 29 -19 44 -20 21 -21 27 -9 34 8 5 22 10 31 10 9 0 21 11 27 25 6 14 16 25
21 25 5 0 16 -11 25 -25z m-196 -15 c7 -11 23 -20 35 -20 33 0 39 -9 22 -34
-19 -26 -19 -44 -1 -78 l15 -28 -42 1 c-23 1 -34 3 -24 6 9 2 15 9 12 14 -10
15 -40 10 -63 -11 -12 -11 -31 -19 -44 -19 l-23 2 23 4 c30 6 32 67 2 85 -27
17 -25 36 4 44 13 3 28 16 35 30 13 29 32 31 49 4z m-200 -20 c7 -12 23 -20
40 -20 40 0 44 -9 22 -39 -12 -19 -16 -32 -9 -42 18 -29 11 -42 -24 -36 -32 5
-73 -13 -60 -26 3 -4 -1 -7 -10 -7 -13 0 -17 9 -17 35 0 26 -6 39 -25 51 -32
21 -32 30 5 42 19 7 32 20 36 36 7 31 25 33 42 6z m-188 -40 c8 -15 17 -19 34
-14 31 7 42 -11 24 -39 -16 -25 -3 -77 19 -77 7 0 13 -4 13 -10 0 -13 0 -13
-48 4 -37 13 -42 13 -56 -3 -9 -10 -13 -21 -9 -24 3 -4 -1 -7 -9 -7 -18 0 -28
20 -28 54 0 14 -10 28 -25 36 -32 17 -32 28 1 36 16 4 30 17 36 35 12 34 33
38 48 9z m1564 -5 c4 -15 17 -30 31 -35 31 -12 32 -24 4 -44 -12 -8 -24 -29
-28 -48 -4 -20 -14 -34 -25 -36 -12 -3 -16 0 -11 7 13 23 -14 40 -47 30 -40
-11 -44 -7 -29 30 11 24 10 33 -3 53 -19 29 -13 38 24 38 15 0 33 7 40 15 19
22 37 18 44 -10z m-1331 -112 c-7 -2 -19 -2 -25 0 -7 3 -2 5 12 5 14 0 19 -2
13 -5z m1197 -23 c0 -5 -7 -10 -15 -10 -8 0 -15 5 -15 10 0 6 7 10 15 10 8 0
15 -4 15 -10z m-1400 -10 c0 -5 -8 -10 -17 -10 -15 0 -16 2 -3 10 19 12 20 12
20 0z m1467 -6 c-3 -3 -12 -4 -19 -1 -8 3 -5 6 6 6 11 1 17 -2 13 -5z m218
-54 c3 -5 1 -10 -4 -10 -6 0 -11 5 -11 10 0 6 2 10 4 10 3 0 8 -4 11 -10z m40
-10 c3 -5 -1 -10 -9 -10 -9 0 -16 5 -16 10 0 6 4 10 9 10 6 0 13 -4 16 -10z
m380 -130 c3 -5 1 -10 -4 -10 -6 0 -11 5 -11 10 0 6 2 10 4 10 3 0 8 -4 11
-10z m-3367 -163 c43 2 43 2 37 -27 -8 -34 24 -76 49 -67 28 11 17 -1 -29 -32
-24 -16 -47 -26 -50 -22 -2 5 5 12 18 16 19 6 20 8 4 12 -23 6 -29 0 -31 -29
-1 -32 -26 -29 -46 7 -9 16 -27 32 -40 35 -31 7 -36 26 -11 40 15 8 21 21 21
46 0 31 3 35 18 28 9 -5 36 -7 60 -7z m3897 -115 c-6 -7 -45 19 -45 29 0 5 11
2 24 -8 13 -10 23 -19 21 -21z m140 -82 c3 -5 2 -10 -4 -10 -5 0 -13 5 -16 10
-3 6 -2 10 4 10 5 0 13 -4 16 -10z m70 -50 c3 -5 2 -10 -4 -10 -5 0 -13 5 -16
10 -3 6 -2 10 4 10 5 0 13 -4 16 -10z m86 -67 c13 -16 12 -17 -3 -4 -10 7 -18
15 -18 17 0 8 8 3 21 -13z m83 -72 c-2 -3 -12 3 -22 13 -16 17 -16 18 5 5 12
-7 20 -15 17 -18z m71 -59 c-6 -7 -35 18 -35 31 0 5 9 2 20 -8 11 -10 18 -20
15 -23z m140 -123 c34 -36 36 -39 10 -21 -16 11 -48 39 -70 63 -34 36 -36 39
-10 21 17 -11 48 -39 70 -63z m285 -67 c36 5 43 -2 31 -34 -6 -16 -4 -30 6
-45 18 -27 9 -45 -21 -41 -12 1 -35 -7 -50 -20 -33 -25 -45 -22 -39 11 4 18
-2 26 -22 35 -38 17 -39 16 -15 -20 l22 -33 -26 28 c-28 30 -26 48 10 72 14 9
24 25 24 39 0 32 10 39 31 20 12 -11 29 -15 49 -12z m-2199 -68 c22 -21 41
-28 86 -32 39 -3 68 -12 88 -27 17 -13 59 -30 94 -39 35 -8 80 -26 100 -40 20
-13 59 -29 86 -35 28 -5 76 -23 107 -39 31 -17 76 -33 100 -37 49 -8 117 -65
148 -125 10 -19 28 -44 40 -55 12 -11 33 -41 45 -66 13 -25 31 -51 39 -58 9
-7 21 -32 27 -55 6 -22 22 -51 35 -64 27 -26 31 -54 9 -72 -24 -20 -19 -59 9
-70 13 -5 28 -22 35 -40 6 -18 21 -40 34 -51 15 -11 27 -33 30 -56 4 -22 16
-45 29 -54 17 -13 23 -30 26 -78 4 -53 8 -64 31 -80 15 -11 40 -43 56 -73 15
-29 37 -62 47 -73 20 -21 47 -58 97 -135 16 -25 39 -56 51 -70 39 -46 40 -52
33 -230 -8 -231 -29 -285 -85 -210 -12 17 -37 39 -55 50 -18 11 -33 26 -33 34
0 8 -17 23 -37 33 -29 14 -39 27 -50 63 -7 25 -12 65 -12 90 3 61 -9 107 -37
152 l-24 38 -27 -17 c-25 -16 -56 -18 -340 -15 -171 1 -322 6 -335 11 -30 11
-124 -29 -156 -67 -95 -110 -102 -123 -102 -172 0 -44 -16 -77 -38 -81 -4 -1
-72 -3 -152 -4 -235 -5 -392 -16 -438 -31 -44 -14 -158 -17 -202 -5 -14 4 -41
2 -60 -5 -19 -6 -52 -14 -72 -17 -48 -7 -93 22 -124 80 -54 103 -63 112 -148
152 -116 55 -119 55 -160 27 -20 -13 -44 -22 -54 -19 -11 2 -91 -3 -178 -12
-87 -9 -229 -19 -314 -21 -85 -2 -158 -4 -162 -4 -4 0 -15 -15 -25 -32 -13
-26 -17 -61 -17 -165 -1 -126 -2 -132 -25 -152 -14 -12 -35 -24 -48 -27 -13
-4 -23 -10 -23 -14 0 -13 26 -30 35 -22 5 4 5 2 1 -5 -3 -6 3 -18 14 -26 20
-14 20 -14 -7 -20 -15 -3 -62 -3 -105 -1 -60 3 -77 0 -82 -11 -6 -18 -47 -36
-91 -42 -16 -2 -46 -15 -66 -29 -19 -13 -40 -24 -46 -24 -6 0 -26 -17 -43 -37
-30 -37 -32 -37 -46 -19 -17 24 -17 21 3 136 11 61 18 150 18 250 1 179 17
282 51 323 13 15 28 45 33 65 5 20 14 55 20 77 6 23 24 53 40 69 24 23 30 39
36 94 9 85 23 118 70 167 21 22 46 59 56 82 9 22 24 45 31 50 23 13 60 82 54
98 -3 9 -18 15 -36 15 -22 0 -33 6 -39 22 -12 34 4 96 32 122 15 14 31 45 38
69 6 25 22 56 35 68 13 12 29 40 35 62 6 22 26 62 45 89 19 28 34 54 34 59 0
5 17 17 38 28 20 10 46 28 56 40 11 12 37 24 59 28 22 3 54 19 72 35 19 16 55
35 83 43 27 8 57 24 67 34 9 11 39 27 65 36 26 9 57 27 70 40 13 13 44 31 71
40 26 9 53 23 60 31 35 42 66 38 125 -18 l31 -29 214 -4 c281 -6 618 17 667
46 18 10 44 19 58 19 36 0 62 16 80 51 14 28 19 31 51 26 20 -4 49 -18 64 -33z
m2044 6 c3 -5 2 -10 -4 -10 -5 0 -13 5 -16 10 -3 6 -2 10 4 10 5 0 13 -4 16
-10z m116 -132 c11 -21 11 -22 -4 -9 -10 7 -17 17 -17 22 0 15 9 10 21 -13z
m113 -134 c3 -8 2 -12 -4 -9 -6 3 -10 10 -10 16 0 14 7 11 14 -7z m251 -124
c12 -13 29 -20 44 -18 21 2 25 -1 22 -17 -4 -26 -4 -66 0 -85 3 -11 -4 -14
-29 -12 -19 2 -38 -3 -48 -12 -18 -19 -50 -21 -60 -4 -4 7 -3 8 4 4 8 -5 12 2
12 18 0 26 -32 52 -50 41 -6 -3 -7 1 -4 10 4 9 19 22 35 31 16 8 29 23 29 33
0 35 19 40 45 11z m-135 -40 c0 -5 -2 -10 -4 -10 -3 0 -8 5 -11 10 -3 6 -1 10
4 10 6 0 11 -4 11 -10z m-6059 -163 c-10 -9 -11 -8 -5 6 3 10 9 15 12 12 3 -3
0 -11 -7 -18z m-36 -76 c-3 -6 -11 -11 -17 -11 -6 0 -6 6 2 15 14 17 26 13 15
-4z m6239 3 c3 -8 2 -12 -4 -9 -6 3 -10 10 -10 16 0 14 7 11 14 -7z m188 -54
c8 -12 24 -20 40 -20 35 0 43 -14 24 -41 -9 -14 -13 -33 -9 -52 6 -29 5 -30
-24 -24 -19 4 -38 0 -52 -9 -27 -19 -41 -10 -41 26 0 29 -28 50 -40 30 -5 -8
-9 -6 -13 5 -4 9 -3 13 3 10 6 -3 10 1 10 9 0 9 12 19 26 22 16 4 30 17 36 35
12 34 23 37 40 9z m-157 0 c3 -5 1 -10 -4 -10 -6 0 -11 5 -11 10 0 6 2 10 4
10 3 0 8 -4 11 -10z m22 -26 c-3 -3 -12 -4 -19 -1 -8 3 -5 6 6 6 11 1 17 -2
13 -5z m93 -189 c0 -5 -5 -3 -10 5 -5 8 -10 20 -10 25 0 6 5 3 10 -5 5 -8 10
-19 10 -25z m-4858 -20 c-12 -22 -27 -2 -18 22 5 12 10 13 17 6 7 -7 8 -17 1
-28z m4943 -165 c3 -5 1 -10 -4 -10 -6 0 -11 5 -11 10 0 6 2 10 4 10 3 0 8 -4
11 -10z m-6750 -150 c3 -5 1 -10 -4 -10 -6 0 -11 5 -11 10 0 6 2 10 4 10 3 0
8 -4 11 -10z m6825 -40 c0 -5 -4 -10 -10 -10 -5 0 -10 5 -10 10 0 6 5 10 10
10 6 0 10 -4 10 -10z m70 -270 c0 -5 -4 -10 -10 -10 -5 0 -10 5 -10 10 0 6 5
10 10 10 6 0 10 -4 10 -10z m-7096 -55 c12 -19 25 -25 52 -25 28 0 35 -3 32
-17 -2 -10 -10 -18 -18 -18 -9 0 -16 -11 -17 -30 -2 -23 -1 -26 5 -11 8 17 9
18 15 3 3 -9 2 -19 -3 -22 -6 -4 -11 -18 -11 -33 -1 -15 -3 -20 -6 -11 -2 9
-15 21 -29 28 -20 9 -30 8 -49 -5 -29 -19 -49 -10 -41 21 4 15 -1 28 -14 40
-26 24 -25 43 2 47 13 2 29 15 36 31 16 33 25 34 46 2z m7251 -5 c9 -17 23
-30 35 -30 29 0 36 -21 12 -41 -14 -11 -22 -29 -22 -48 0 -31 -21 -43 -36 -20
-4 7 -21 9 -46 5 l-40 -7 6 34 c5 25 2 38 -9 47 -25 21 -18 40 15 40 23 0 33
6 42 25 15 33 24 32 43 -5z m-7158 -2 c-3 -8 -6 -5 -6 6 -1 11 2 17 5 13 3 -3
4 -12 1 -19z m7023 1 c0 -5 -4 -9 -10 -9 -5 0 -10 7 -10 16 0 8 5 12 10 9 6
-3 10 -10 10 -16z m7 -51 c-3 -7 -5 -2 -5 12 0 14 2 19 5 13 2 -7 2 -19 0 -25z
m10 -50 c-3 -8 -6 -5 -6 6 -1 11 2 17 5 13 3 -3 4 -12 1 -19z m18 -58 c3 -5 1
-10 -4 -10 -6 0 -11 5 -11 10 0 6 2 10 4 10 3 0 8 -4 11 -10z m-7190 -24 c13
-19 23 -24 51 -22 23 2 34 -1 34 -10 0 -8 -3 -14 -8 -14 -12 0 -33 -40 -26
-51 4 -8 9 -7 15 2 6 10 9 6 9 -12 0 -31 -23 -44 -51 -29 -14 8 -25 6 -43 -6
-30 -19 -46 -12 -46 20 0 13 -9 31 -20 41 -27 24 -25 33 6 41 16 4 30 17 36
35 12 35 23 36 43 5z m7205 -41 c0 -8 -4 -15 -10 -15 -5 0 -7 7 -4 15 4 8 8
15 10 15 2 0 4 -7 4 -15z m7 -87 c-3 -7 -5 -2 -5 12 0 14 2 19 5 13 2 -7 2
-19 0 -25z m10 -85 c-3 -10 -5 -2 -5 17 0 19 2 27 5 18 2 -10 2 -26 0 -35z
m135 16 c6 -17 21 -34 34 -39 31 -12 30 -24 -1 -44 -17 -11 -25 -26 -25 -46 0
-33 -11 -38 -31 -14 -9 11 -23 14 -46 11 -38 -7 -48 4 -33 33 9 17 8 27 -5 47
-14 21 -15 27 -4 34 8 5 21 6 30 4 8 -3 26 6 39 20 13 14 25 25 27 25 2 0 9
-14 15 -31z m-7296 -16 c-11 -11 -17 4 -9 23 7 18 8 18 11 1 2 -10 1 -21 -2
-24z m3019 17 c4 -6 -19 -10 -62 -9 -49 1 -61 3 -43 9 36 12 98 12 105 0z
m4152 -132 c-2 -13 -4 -3 -4 22 0 25 2 35 4 23 2 -13 2 -33 0 -45z m141 -67
c2 -12 14 -27 28 -33 29 -14 31 -34 4 -48 -11 -6 -20 -18 -20 -28 0 -9 -4 -24
-10 -32 -8 -12 -11 -12 -28 3 -25 23 -88 23 -101 0 -8 -14 -10 -3 -9 42 0 33
3 47 5 30 3 -16 8 -34 13 -39 14 -14 23 40 10 63 -14 28 -4 44 25 37 15 -4 28
1 40 14 22 25 39 21 43 -9z m12 -197 c0 -16 8 -28 25 -36 31 -14 31 -23 1 -43
-13 -9 -26 -30 -30 -47 l-6 -31 -23 21 c-14 13 -36 22 -55 22 -34 0 -39 9 -21
42 8 14 8 23 0 31 -6 6 -11 19 -11 30 0 15 5 17 29 12 23 -5 35 -1 51 15 24
24 40 19 40 -16z m-5252 -31 c6 -10 6 -28 0 -47 -5 -17 -9 -50 -9 -73 0 -24
-5 -45 -10 -49 -5 -3 -9 35 -9 90 0 93 8 115 28 79z m5114 -134 c2 -17 11 -22
42 -25 24 -2 44 2 53 12 21 20 37 13 41 -19 2 -15 12 -32 23 -37 26 -15 24
-35 -6 -48 -14 -7 -25 -20 -25 -31 0 -30 -19 -35 -44 -12 -13 12 -36 21 -54
21 l-31 0 17 29 c13 24 14 33 4 56 -7 14 -17 23 -22 20 -6 -3 -10 0 -10 9 0 8
-3 21 -6 30 -3 9 -1 16 4 16 6 0 12 -10 14 -21z m-5 -96 c-3 -10 -5 -2 -5 17
0 19 2 27 5 18 2 -10 2 -26 0 -35z m123 -118 c0 -14 11 -34 25 -47 31 -27 31
-36 0 -48 -14 -5 -28 -17 -30 -25 -16 -51 -14 -50 -43 -22 -16 16 -39 27 -55
27 -31 0 -32 3 -11 35 12 18 13 28 4 45 -15 29 -5 40 33 33 23 -3 37 0 46 11
19 23 31 20 31 -9z m-133 -37 c-2 -13 -4 -5 -4 17 -1 22 1 32 4 23 2 -10 2
-28 0 -40z m-10 -115 c-3 -10 -5 -2 -5 17 0 19 2 27 5 18 2 -10 2 -26 0 -35z
m-1514 -24 c8 -9 35 -19 61 -23 56 -9 62 -19 68 -113 7 -97 23 -121 85 -125
46 -3 48 -4 51 -37 4 -41 -5 -81 -18 -81 -6 0 -25 14 -42 30 l-32 31 -15 -28
c-11 -19 -16 -56 -16 -119 l0 -92 75 -70 c41 -40 87 -74 102 -78 48 -10 29
-37 -36 -49 -32 -7 -41 -14 -57 -49 -21 -46 -24 -116 -9 -215 10 -72 -2 -157
-25 -181 -13 -13 -17 -12 -35 5 -15 16 -25 57 -44 190 -21 145 -28 173 -47
188 -44 35 -150 11 -178 -42 -6 -10 -28 -29 -48 -42 -21 -12 -48 -35 -61 -51
-13 -15 -29 -28 -37 -28 -7 0 -25 -16 -39 -35 -15 -19 -33 -35 -41 -35 -8 0
-22 -11 -31 -26 -9 -14 -30 -32 -45 -40 -21 -10 -32 -28 -44 -67 -34 -113 -87
-238 -100 -233 -48 18 -95 59 -103 88 -5 22 -21 41 -45 57 -20 13 -37 31 -37
38 0 18 -71 49 -131 57 -42 6 -47 10 -53 38 -3 17 -6 50 -6 75 0 46 -16 69
-70 104 -21 14 -23 18 -11 33 7 9 31 19 53 23 22 3 53 17 68 30 16 13 44 30
64 38 20 9 57 31 82 50 25 19 50 35 56 35 6 0 21 11 33 24 13 14 42 30 66 37
24 7 56 23 70 36 14 13 49 30 77 38 28 7 64 23 79 34 16 12 56 42 89 66 60 43
92 81 154 175 38 57 37 76 -1 134 -26 39 -32 58 -33 108 l-1 60 55 49 55 48
17 -22 c9 -12 23 -29 31 -38z m-5693 -14 c58 -3 60 -4 60 -26 0 -11 -4 -18 -9
-14 -5 3 -13 1 -16 -5 -8 -13 14 -42 26 -34 5 3 9 -5 9 -18 0 -21 -4 -24 -33
-20 -27 3 -37 -1 -50 -22 -22 -33 -35 -33 -43 0 -4 16 -17 30 -35 36 -34 12
-37 28 -9 46 11 7 20 23 20 35 0 30 10 40 29 30 9 -4 32 -7 51 -8z m7330 -12
c0 -18 10 -35 28 -50 l27 -22 -32 -13 c-21 -8 -36 -23 -43 -43 l-11 -30 -24
28 c-14 16 -34 27 -50 27 -26 0 -35 23 -14 35 6 5 8 22 4 46 l-7 40 40 -7 c25
-4 42 -2 46 5 14 22 36 12 36 -16z m-133 -25 c-3 -7 -5 -2 -5 12 0 14 2 19 5
13 2 -7 2 -19 0 -25z m-5284 -61 c13 -29 27 -64 31 -79 5 -21 13 -28 29 -28
31 0 120 -30 129 -44 4 -6 8 -31 8 -55 0 -34 9 -59 38 -105 47 -76 107 -136
135 -136 36 0 50 -15 43 -43 -6 -24 -7 -24 -43 -12 -27 9 -42 10 -50 3 -28
-22 -7 -68 30 -68 11 0 23 -13 32 -34 14 -34 53 -56 97 -56 10 0 31 -12 45
-26 30 -30 70 -44 126 -44 21 0 58 -5 83 -11 69 -18 55 -52 -26 -62 -25 -4
-55 -8 -68 -11 -26 -6 -114 16 -157 38 -16 9 -36 16 -43 16 -7 0 -29 7 -50 17
-20 9 -40 15 -44 15 -5 -1 -8 2 -8 8 0 17 -75 11 -128 -11 -41 -17 -51 -26
-54 -50 -5 -33 4 -38 70 -41 23 -1 42 -4 42 -8 0 -3 9 -16 20 -28 12 -12 17
-22 13 -22 -4 0 7 -15 24 -32 17 -18 33 -42 35 -53 3 -18 -2 -20 -52 -18 -30
2 -56 7 -58 13 -2 5 -12 20 -22 32 -17 21 -27 23 -114 23 -53 0 -100 -5 -105
-10 -22 -22 -33 -131 -28 -276 7 -182 2 -195 -61 -149 -23 16 -43 31 -43 33
-1 1 -5 72 -8 157 -5 128 -9 160 -25 183 -18 26 -20 27 -43 12 -13 -9 -34 -15
-46 -13 -18 2 -23 11 -25 42 -3 35 1 42 51 87 46 40 57 58 67 100 13 54 8 154
-11 208 -13 36 -20 38 -44 11 -12 -13 -29 -20 -44 -18 -23 3 -26 8 -29 45 -3
40 -1 43 37 62 48 25 53 38 50 138 -3 92 11 126 71 174 29 23 40 40 40 59 0
35 40 131 51 124 5 -3 20 -29 32 -57z m5277 -2 c0 -8 -2 -15 -4 -15 -2 0 -6 7
-10 15 -3 8 -1 15 4 15 6 0 10 -7 10 -15z m-7115 -101 c-6 -51 -5 -56 15 -61
33 -9 21 -37 -18 -41 -21 -2 -38 -12 -48 -28 -20 -30 -28 -30 -42 1 -7 14 -23
30 -37 35 -29 11 -31 22 -10 40 8 7 15 25 15 41 0 35 15 45 43 27 28 -18 77
-3 77 24 0 10 3 18 6 18 4 0 3 -25 -1 -56z m7105 42 c0 -3 -4 -8 -10 -11 -5
-3 -10 -1 -10 4 0 6 5 11 10 11 6 0 10 -2 10 -4z m120 -47 c0 -19 8 -37 22
-48 24 -20 17 -41 -12 -41 -12 0 -26 -13 -36 -32 l-17 -32 -23 27 c-14 16 -33
27 -49 27 -28 0 -33 21 -10 40 11 9 14 22 9 47 l-6 34 40 -7 c25 -4 42 -2 46
5 15 23 36 11 36 -20z m-7205 -8 c3 -5 1 -12 -5 -16 -5 -3 -10 1 -10 9 0 18 6
21 15 7z m7062 -13 c-3 -8 -6 -5 -6 6 -1 11 2 17 5 13 3 -3 4 -12 1 -19z m-10
-60 c-3 -8 -6 -5 -6 6 -1 11 2 17 5 13 3 -3 4 -12 1 -19z m-16 -45 c-8 -15
-10 -15 -11 -2 0 17 10 32 18 25 2 -3 -1 -13 -7 -23z m-1044 -105 c-2 -18 -4
-4 -4 32 0 36 2 50 4 33 2 -18 2 -48 0 -65z m-5950 10 c-3 -8 -6 -5 -6 6 -1
11 2 17 5 13 3 -3 4 -12 1 -19z m1380 -35 c-3 -10 -5 -2 -5 17 0 19 2 27 5 18
2 -10 2 -26 0 -35z m5463 -377 c0 -3 -4 -8 -10 -11 -5 -3 -10 -1 -10 4 0 6 5
11 10 11 6 0 10 -2 10 -4z m-10 -76 c10 0 22 -5 25 -10 4 -6 21 -8 42 -4 34 6
35 6 32 -22 -2 -16 3 -39 10 -52 15 -27 7 -42 -22 -42 -12 0 -31 -12 -42 -26
l-21 -27 -13 30 c-10 25 -61 58 -83 54 -5 0 -8 4 -8 10 0 6 6 9 14 6 20 -8 46
25 46 59 0 22 -3 26 -10 14 -11 -18 -13 -9 -3 16 4 11 8 13 11 6 2 -7 12 -12
22 -12z m-4112 -9 c10 -6 10 -10 -2 -21 -19 -15 -94 -6 -122 15 -17 13 -12 14
46 15 36 0 71 -4 78 -9z m219 -87 c8 -10 17 -19 21 -20 4 0 25 -9 47 -19 32
-15 36 -19 20 -22 -11 -2 -30 -9 -43 -15 -19 -10 -26 -8 -50 15 -15 14 -38 27
-52 29 -39 5 -92 40 -77 50 22 16 119 3 134 -18z m3799 -51 c-8 -15 -15 -25
-16 -21 0 12 23 58 27 54 3 -2 -2 -17 -11 -33z m-6474 -45 c10 -23 16 -43 14
-45 -2 -3 -7 5 -11 16 -7 24 -25 28 -25 6 0 -9 12 -21 28 -28 29 -12 42 -26
42 -42 0 -5 -4 -4 -8 2 -14 22 -67 -6 -80 -40 l-12 -31 -23 22 c-13 12 -33 22
-45 22 -27 0 -39 25 -23 44 8 9 10 28 5 50 -7 39 -2 42 39 27 19 -8 29 -5 48
14 13 13 26 24 29 24 3 1 13 -18 22 -41z m1115 -25 c-3 -10 -5 -2 -5 17 0 19
2 27 5 18 2 -10 2 -26 0 -35z m5391 35 c7 -7 28 -11 48 -10 36 3 37 2 30 -29
-4 -23 -1 -38 10 -50 21 -23 10 -39 -25 -39 -18 0 -34 -8 -43 -22 -16 -24 -38
-17 -38 13 0 13 -10 24 -30 30 -35 13 -38 29 -10 47 11 7 20 23 20 35 0 36 16
47 38 25z m-4562 -33 c18 -14 17 -14 -13 -15 -25 0 -31 4 -27 15 8 19 15 19
40 0z m4492 -5 c-7 -10 -14 -18 -15 -16 -6 6 9 36 18 36 5 0 4 -9 -3 -20z
m-46 -82 c-7 -7 -12 -8 -12 -2 0 14 12 26 19 19 2 -3 -1 -11 -7 -17z m-1065
-74 c-3 -3 -12 -4 -19 -1 -8 3 -5 6 6 6 11 1 17 -2 13 -5z m-779 -46 c9 -17
27 -42 40 -54 13 -12 26 -39 29 -61 3 -21 21 -58 39 -82 18 -24 39 -60 45 -80
7 -20 22 -49 35 -64 13 -16 24 -37 24 -47 0 -9 3 -32 6 -49 6 -27 1 -36 -37
-72 -24 -22 -84 -60 -134 -84 -49 -24 -105 -55 -122 -68 -20 -15 -45 -24 -65
-23 l-33 1 0 115 c1 63 2 196 3 295 l2 180 52 35 c28 19 52 44 54 54 3 18 20
36 37 36 4 0 16 -14 25 -32z m732 17 c16 -20 4 -109 -19 -129 -29 -27 -44 -5
-39 57 6 75 31 105 58 72z m1044 -10 c-7 -16 -24 -21 -24 -6 0 8 7 13 27 20 1
1 0 -6 -3 -14z m-24 -40 c0 -8 -4 -15 -10 -15 -5 0 -7 7 -4 15 4 8 8 15 10 15
2 0 4 -7 4 -15z m-6135 -23 c-3 -3 -11 0 -18 7 -9 10 -8 11 6 5 10 -3 15 -9
12 -12z m2509 -31 c17 -6 15 -10 -18 -38 -36 -29 -37 -32 -34 -88 3 -58 3 -58
-31 -69 -22 -8 -37 -22 -46 -42 -9 -22 -22 -33 -44 -37 -23 -5 -31 -12 -31
-27 0 -24 -39 -43 -57 -28 -21 17 -15 45 12 65 17 12 30 37 40 72 8 30 22 59
31 64 9 5 22 24 30 43 8 20 26 40 42 46 15 7 35 20 45 30 19 19 31 21 61 9z
m2529 -64 c10 -26 -20 -79 -77 -137 -47 -48 -70 -64 -113 -76 -53 -16 -54 -15
-87 10 -24 18 -48 26 -87 28 -71 4 -65 22 9 25 31 1 88 6 127 12 58 8 74 15
95 39 14 17 37 33 52 36 19 4 30 15 34 34 4 15 9 30 11 35 7 12 30 8 36 -6z
m-3490 -113 c-3 -8 -9 -14 -13 -14 -12 0 -23 38 -14 51 10 16 35 -18 27 -37z
m2318 -270 c0 -325 3 -344 54 -344 30 0 39 17 60 106 13 56 15 106 11 272 l-6
202 45 0 45 0 0 -195 c0 -195 0 -196 25 -220 13 -14 31 -25 40 -25 16 0 19
-20 9 -57 -6 -22 -7 -22 -23 -4 -21 24 -66 35 -79 18 -6 -6 -17 -37 -26 -69
-14 -45 -22 -57 -41 -62 -16 -4 -30 -19 -39 -41 -12 -28 -20 -35 -43 -35 -25
0 -29 -4 -31 -31 -5 -63 -61 -154 -131 -214 -29 -25 -56 -45 -61 -45 -4 0 -31
-16 -59 -35 -28 -19 -55 -35 -60 -35 -6 0 -26 -14 -45 -30 -18 -17 -54 -39
-79 -50 -26 -11 -54 -28 -63 -37 -20 -20 -101 -19 -124 1 -8 8 -38 25 -66 39
-27 14 -56 32 -62 40 -7 8 -30 22 -52 32 -22 10 -40 21 -40 26 0 4 -24 21 -52
37 -59 34 -236 192 -256 229 -15 28 -99 113 -111 113 -4 0 -20 11 -35 25 -18
16 -28 21 -31 12 -2 -6 -9 -29 -15 -50 -19 -61 -49 -69 -152 -37 -47 14 -76
31 -107 61 l-42 41 28 15 c15 8 49 35 76 61 45 44 50 46 98 44 53 -2 89 -16
89 -33 0 -5 7 -26 16 -47 l16 -37 16 40 c28 67 39 81 55 70 8 -5 26 -18 39
-28 14 -10 53 -22 87 -28 76 -12 120 -38 145 -84 23 -42 62 -66 126 -76 25 -4
72 -18 105 -32 78 -33 221 -48 297 -30 29 7 76 12 105 13 41 0 57 5 73 22 18
20 19 24 6 34 -12 8 -6 14 34 28 27 10 55 14 61 10 8 -5 9 -3 5 5 -5 8 -3 11
5 10 15 -3 57 17 74 35 15 16 20 189 12 446 l-2 85 -132 3 c-98 2 -134 0 -142
-10 -6 -7 -20 -25 -32 -40 -11 -16 -27 -28 -35 -28 -8 0 -13 -3 -12 -7 3 -17
-21 -61 -37 -67 -15 -6 -14 -9 9 -32 24 -25 58 -114 47 -124 -3 -3 -7 -23 -9
-44 -1 -22 -7 -44 -12 -51 -11 -13 -8 -30 14 -90 9 -24 11 -44 5 -51 -5 -6 -6
-14 -2 -17 3 -4 1 -7 -5 -7 -7 0 -12 -7 -12 -15 0 -11 -12 -15 -47 -15 -27 0
-55 5 -63 10 -8 5 -10 10 -5 10 9 0 10 36 3 290 -1 19 2 61 6 93 7 53 5 63
-27 130 -19 39 -37 84 -40 98 l-7 26 108 11 c59 7 145 10 192 8 47 -2 117 0
157 4 64 6 76 11 103 40 20 22 34 30 41 23 6 -6 10 -125 10 -309z m-1311 191
c0 -147 -15 -151 -61 -17 -16 48 -18 61 -7 87 14 34 25 45 51 45 15 0 17 -12
17 -115z m-945 35 c11 -17 -5 -32 -21 -19 -7 6 -11 15 -8 20 7 12 21 11 29 -1z
m815 -91 c-16 -28 -27 -31 -33 -7 -8 28 -1 37 23 31 15 -4 17 -9 10 -24z
m-740 11 c0 -5 -4 -10 -9 -10 -6 0 -13 5 -16 10 -3 6 1 10 9 10 9 0 16 -4 16
-10z m514 -56 c28 -11 17 -24 -19 -24 -36 0 -48 15 -17 23 9 3 18 5 19 6 1 0
8 -2 17 -5z m-439 -14 c3 -5 -1 -10 -9 -10 -9 0 -16 5 -16 10 0 6 4 10 9 10 6
0 13 -4 16 -10z m795 -55 c0 -25 -4 -45 -10 -45 -5 0 -10 20 -10 45 0 25 5 45
10 45 6 0 10 -20 10 -45z m3270 41 c0 -2 -8 -10 -17 -17 -16 -13 -17 -12 -4 4
13 16 21 21 21 13z m-3707 -41 c8 -20 -6 -27 -87 -41 -57 -10 -77 -9 -109 2
-22 8 -49 14 -61 14 -20 1 -20 1 -3 11 11 6 69 14 130 19 62 4 115 8 118 9 4
0 9 -6 12 -14z m173 -38 c14 -40 11 -57 -12 -72 -21 -13 -23 -13 -29 6 -11 32
4 99 20 92 8 -2 17 -15 21 -26z m3530 -8 c9 -10 30 -19 46 -19 31 0 34 -7 14
-35 -10 -14 -11 -26 -5 -43 12 -31 3 -43 -27 -36 -14 4 -34 0 -48 -9 -27 -18
-36 -13 -36 17 0 12 -13 33 -30 48 -37 32 -37 38 -3 69 l27 24 -23 -32 c-25
-36 -24 -37 14 -23 21 8 26 16 23 33 -6 30 23 33 48 6z m-5416 -29 c0 -5 -2
-10 -4 -10 -3 0 -8 5 -11 10 -3 6 -1 10 4 10 6 0 11 -4 11 -10z m45 -48 c-3
-3 -11 0 -18 7 -9 10 -8 11 6 5 10 -3 15 -9 12 -12z m5225 -2 c-14 -10 -27
-17 -29 -15 -8 8 22 35 38 35 12 0 10 -5 -9 -20z m18 -60 c8 -13 23 -20 42
-20 33 0 40 -19 15 -40 -11 -9 -14 -22 -9 -47 7 -35 6 -35 -24 -28 -21 4 -39
1 -55 -9 -28 -19 -37 -13 -37 25 0 18 -7 32 -20 39 -28 15 -25 29 9 41 18 6
32 20 35 35 8 29 27 31 44 4z m-5174 -6 c24 -24 19 -30 -6 -8 -13 10 -25 20
-27 21 -2 2 1 3 7 3 6 0 18 -7 26 -16z m5036 -54 c-11 -20 -30 -28 -30 -12 0
11 22 32 32 32 5 0 4 -9 -2 -20z m-4935 -49 c11 -14 14 -21 8 -17 -17 9 -17
-16 -1 -32 16 -16 41 -16 32 1 -4 6 2 4 13 -5 11 -10 24 -18 30 -18 6 0 16 -7
23 -15 15 -18 7 -19 -20 -3 -16 10 -23 9 -44 -11 -18 -17 -24 -31 -20 -46 8
-31 -10 -39 -40 -20 -19 13 -29 14 -45 6 -29 -16 -32 -14 -29 23 1 22 -5 42
-15 54 -20 21 -13 32 19 32 14 0 31 12 44 30 12 17 19 30 15 30 -3 0 -3 5 0
11 4 6 8 9 9 7 0 -2 10 -14 21 -27z m4885 -5 c0 -2 -12 -12 -27 -21 l-28 -18
19 21 c17 20 36 29 36 18z m-100 -80 c0 -2 -8 -10 -17 -17 -16 -13 -17 -12 -4
4 13 16 21 21 21 13z m-4609 -63 c13 -15 12 -15 -8 -4 -24 12 -29 21 -14 21 5
0 15 -7 22 -17z m1374 -3 c14 -23 -89 -34 -150 -15 l-30 9 35 6 c55 11 138 11
145 0z m3105 -44 c0 -2 -8 -10 -17 -17 -16 -13 -17 -12 -4 4 13 16 21 21 21
13z m-50 -41 c-7 -9 -15 -13 -17 -11 -7 7 7 26 19 26 6 0 6 -6 -2 -15z m-3147
-49 c26 -20 22 -24 -29 -32 -34 -5 -48 -3 -55 7 -19 31 49 51 84 25z m-1013
-82 c5 -25 10 -29 36 -29 34 0 41 -19 17 -47 -10 -11 -13 -27 -8 -47 6 -30 6
-30 -37 -28 -24 0 -51 -2 -60 -7 -15 -7 -18 -3 -18 24 0 21 -8 38 -22 49 -25
21 -17 41 17 41 17 0 26 9 35 33 7 17 12 36 11 40 -1 5 4 7 11 5 7 -3 15 -18
18 -34z m4040 -20 c6 -14 18 -24 29 -24 29 0 36 -18 15 -41 -11 -13 -17 -32
-16 -50 3 -21 -1 -29 -12 -29 -8 0 -18 5 -21 11 -4 6 -22 8 -46 4 -38 -7 -39
-6 -39 24 0 18 -7 43 -16 56 -16 25 -16 25 14 31 17 4 38 17 47 30 18 28 32
24 45 -12z m-522 14 c-3 -7 -10 -13 -16 -12 -7 1 -25 2 -42 3 -48 2 -34 21 16
21 32 0 44 -4 42 -12z m389 -34 c-16 -9 -31 -13 -34 -10 -3 3 5 10 18 15 37
15 47 12 16 -5z m-217 -34 c20 -22 37 -30 62 -30 31 -1 32 -2 12 -13 -52 -30
-78 -57 -66 -69 7 -7 12 -20 12 -29 0 -10 13 -21 30 -28 35 -12 38 -26 10 -41
-13 -7 -20 -21 -20 -40 0 -36 -16 -47 -39 -25 -13 10 -27 14 -44 10 -37 -10
-48 0 -36 32 7 20 6 30 -6 43 -23 25 -18 40 13 40 34 0 58 25 60 63 2 23 -4
31 -33 43 -19 7 -43 14 -53 14 -11 0 -26 7 -33 16 -11 14 -10 18 6 30 10 8 36
14 58 14 30 0 45 -7 67 -30z m140 -5 c0 -2 -10 -9 -22 -15 -22 -11 -22 -10 -4
4 21 17 26 19 26 11z m-3645 -15 c3 -6 -1 -7 -9 -4 -18 7 -21 14 -7 14 6 0 13
-4 16 -10z m3459 -94 c-10 -8 -21 -12 -24 -10 -5 6 21 24 34 24 6 0 1 -6 -10
-14z m-108 -104 c4 -20 15 -32 37 -41 l32 -12 -27 -22 c-18 -15 -28 -32 -28
-50 0 -30 -20 -36 -40 -12 -9 11 -22 14 -46 9 -34 -6 -34 -6 -32 32 0 22 -3
49 -7 62 -7 20 -4 22 26 22 23 0 38 6 47 20 17 28 32 25 38 -8z m-536 -202 c0
-23 6 -33 25 -42 32 -14 32 -25 0 -40 -13 -6 -29 -24 -34 -40 -9 -25 -13 -28
-30 -18 -11 5 -23 15 -26 20 -4 6 -15 8 -26 5 -31 -10 -41 3 -25 34 9 17 11
32 5 42 -5 8 -9 22 -9 31 0 13 7 16 33 11 23 -3 37 0 46 11 22 26 41 19 41
-14z m-190 -44 c0 -14 11 -33 25 -44 32 -25 31 -28 -5 -47 -17 -9 -30 -23 -30
-35 0 -29 -22 -36 -38 -12 -9 14 -25 22 -42 22 -36 0 -42 8 -25 39 9 18 10 32
4 42 -19 30 -11 42 25 36 24 -4 39 -1 47 9 18 22 39 17 39 -10z m-447 -33
c-13 -2 -33 -2 -45 0 -13 2 -3 4 22 4 25 0 35 -2 23 -4z m-768 -17 c14 -10 26
-11 43 -5 38 15 44 11 37 -21 -4 -20 -1 -37 9 -52 22 -32 20 -38 -13 -38 -20
0 -34 -8 -45 -25 -21 -32 -34 -32 -42 -1 -3 15 -17 29 -35 35 -34 12 -37 26
-9 43 13 9 20 24 20 45 0 36 7 40 35 19z m840 -19 c1 -15 11 -37 24 -50 l22
-25 -30 -10 c-18 -7 -35 -22 -41 -36 -12 -33 -23 -33 -44 -1 -10 16 -26 25
-41 25 -27 0 -33 18 -13 38 7 7 11 28 10 47 -3 36 6 42 37 25 13 -6 24 -5 37
5 26 19 39 13 39 -18z"/>
<path d="M5956 7724 c-3 -9 -6 -27 -6 -41 0 -37 25 -23 26 16 1 35 -10 50 -20
25z"/>
<path d="M6061 7594 c-59 -30 -71 -48 -71 -110 0 -41 5 -59 23 -80 21 -24 23
-31 14 -71 -12 -52 -4 -64 44 -66 40 -2 52 -24 43 -73 -3 -19 -8 -34 -11 -34
-2 0 -14 12 -27 27 -28 32 -51 26 -59 -15 -3 -16 -18 -37 -32 -46 -24 -16 -39
-17 -133 -8 -59 5 -114 5 -123 1 -9 -5 -22 -22 -27 -39 -7 -19 -24 -36 -46
-47 -31 -14 -35 -20 -29 -42 9 -41 22 -61 39 -61 16 0 61 30 104 68 33 30 60
36 136 29 59 -6 124 -31 124 -49 0 -3 20 -28 45 -55 41 -44 44 -52 45 -100 0
-45 4 -55 25 -69 30 -19 79 -11 99 17 12 17 9 23 -21 56 -29 30 -33 40 -26 62
10 31 9 134 -2 341 -7 130 -12 163 -32 205 -12 27 -23 61 -23 75 -1 14 -9 43
-18 66 l-17 41 -44 -23z"/>
<path d="M5880 7575 c0 -43 5 -44 18 -6 8 23 7 31 -4 35 -10 4 -14 -3 -14 -29z"/>
<path d="M5875 7504 c-13 -19 -99 -34 -199 -35 -44 0 -101 -4 -126 -8 l-45 -8
40 -8 c22 -4 48 -9 58 -11 9 -2 77 -6 150 -9 108 -6 136 -4 151 8 18 13 18 18
6 46 -16 39 -23 44 -35 25z"/>
<path d="M4711 7466 c-6 -25 -11 -66 -11 -93 0 -59 22 -203 31 -203 4 0 14 17
22 38 8 21 22 44 30 51 29 23 57 91 57 136 0 59 -16 92 -49 98 -14 3 -35 8
-47 12 -19 6 -23 1 -33 -39z"/>
<path d="M4926 7458 c-9 -37 -7 -73 6 -86 20 -20 128 -12 128 9 0 4 -17 13
-38 19 -29 7 -44 19 -58 45 -22 41 -29 43 -38 13z"/>
<path d="M5128 7468 c-34 -12 -36 -33 -5 -42 34 -9 124 -7 197 4 118 18 122
22 45 36 -83 15 -199 16 -237 2z"/>
<path d="M4850 7109 c-7 -15 -30 -37 -52 -49 l-41 -23 5 -88 c8 -132 47 -174
104 -111 83 89 110 111 150 121 54 14 89 14 137 0 32 -9 41 -18 58 -57 18 -41
19 -52 8 -97 -17 -70 -38 -117 -49 -110 -6 4 -22 -3 -36 -14 -29 -23 -54 -27
-54 -11 0 20 -61 38 -94 29 -61 -18 -74 -12 -86 32 -6 22 -17 42 -25 45 -24
10 -70 -20 -80 -52 -16 -50 -34 -64 -79 -65 -38 -1 -37 -1 23 -14 51 -12 69
-12 94 -2 25 10 43 10 96 -1 36 -7 82 -10 101 -7 19 4 58 8 85 10 28 1 58 3
68 4 9 0 17 8 17 16 0 9 12 20 28 26 23 9 288 15 777 18 33 1 67 5 75 11 13 9
12 13 -9 30 -26 23 -34 24 -77 11 -29 -8 -199 9 -236 24 -9 3 -30 -1 -47 -9
-65 -34 -328 -36 -426 -4 -35 11 -40 17 -42 45 -1 25 5 38 25 53 15 11 41 33
58 49 l32 29 -34 7 c-28 5 -38 14 -56 52 -16 35 -31 49 -62 63 -36 15 -46 16
-80 4 -21 -8 -75 -14 -121 -14 -85 0 -95 4 -130 55 -13 19 -14 19 -25 -6z"/>
<path d="M3916 7021 c-4 -5 -3 -17 0 -26 6 -15 8 -15 25 1 10 9 16 21 13 25
-7 12 -31 11 -38 0z"/>
<path d="M6964 6908 c-5 -7 -11 -34 -14 -60 -6 -45 -5 -48 17 -48 30 0 73 -28
73 -47 0 -27 16 -4 18 26 2 21 -2 31 -12 31 -15 0 -26 21 -26 49 0 10 -11 28
-24 40 -19 18 -26 20 -32 9z"/>
<path d="M6893 6766 c-2 -19 2 -38 7 -41 8 -5 13 22 9 51 0 4 5 11 13 15 10 6
8 9 -7 9 -16 0 -21 -7 -22 -34z"/>
<path d="M6965 6661 c-3 -5 -1 -12 5 -16 5 -3 10 1 10 9 0 18 -6 21 -15 7z"/>
<path d="M4124 6596 c-18 -14 -18 -16 -2 -32 16 -16 25 -17 95 -6 43 7 81 16
86 21 10 10 -69 31 -121 31 -21 0 -47 -6 -58 -14z"/>
<path d="M4067 6458 c-3 -11 -3 -35 0 -52 5 -26 7 -27 14 -11 11 28 11 73 0
79 -5 3 -11 -4 -14 -16z"/>
<path d="M7544 4277 c-3 -9 -3 -25 1 -34 6 -16 8 -16 18 5 7 16 7 26 -1 34 -8
8 -13 7 -18 -5z"/>
<path d="M3617 3974 c-5 -5 10 -62 20 -74 8 -9 23 25 23 53 0 20 -5 27 -18 27
-10 0 -21 -3 -25 -6z"/>
<path d="M5690 3016 c0 -2 8 -10 18 -17 15 -13 16 -12 3 4 -13 16 -21 21 -21
13z"/>
<path d="M6166 2601 c-4 -7 -5 -15 -2 -18 9 -9 19 4 14 18 -4 11 -6 11 -12 0z"/>
<path d="M4303 9050 c-34 -10 -67 -21 -73 -25 -20 -12 26 -45 64 -45 38 0 96
28 96 47 0 6 3 18 6 27 8 20 -11 19 -93 -4z"/>
<path d="M6385 9043 c4 -16 7 -28 8 -29 1 0 14 -8 29 -17 37 -23 90 -22 113 3
10 11 16 22 14 24 -4 4 -155 46 -165 46 -3 0 -3 -12 1 -27z"/>
<path d="M5355 9030 c-4 -6 11 -10 37 -10 31 0 39 3 28 10 -20 13 -57 13 -65
0z"/>
<path d="M4112 8987 c-79 -29 -82 -31 -66 -48 38 -42 148 -11 157 44 2 15 1
29 -2 31 -3 2 -43 -10 -89 -27z"/>
<path d="M3640 8781 c-8 -4 -46 -25 -84 -46 l-69 -38 27 -14 c17 -9 39 -12 57
-8 27 6 29 5 29 -25 0 -17 7 -42 16 -55 15 -23 18 -24 44 -10 26 14 28 18 19
44 -7 20 -21 33 -42 41 l-32 11 28 25 c21 18 27 31 25 53 -2 23 -7 28 -18 22z"/>
<path d="M3565 8549 c-11 -17 0 -20 21 -4 17 13 17 14 2 15 -9 0 -20 -5 -23
-11z"/>
<path d="M3067 8418 l-69 -51 26 -14 c53 -28 144 36 130 91 -3 15 -9 26 -13
26 -3 0 -37 -24 -74 -52z"/>
<path d="M2771 8164 c-34 -31 -61 -60 -61 -64 0 -4 12 -11 26 -14 28 -7 65 11
96 48 19 23 24 71 9 81 -5 3 -37 -20 -70 -51z"/>
<path d="M2952 8108 c-14 -14 -16 -28 -2 -28 5 0 14 9 20 20 12 22 1 27 -18 8z"/>
<path d="M2687 7843 c-4 -3 -7 -13 -7 -21 0 -12 3 -12 15 -2 8 7 15 16 15 21
0 11 -14 12 -23 2z"/>
<path d="M2337 7385 c-4 -8 -2 -17 2 -20 5 -2 11 4 14 15 6 23 -8 27 -16 5z"/>
<path d="M8916 6741 c-39 -43 2 -150 58 -151 18 0 27 4 24 13 -3 6 -15 42 -27
79 -13 37 -26 70 -30 73 -5 2 -16 -4 -25 -14z"/>
<path d="M1606 5782 c-2 -9 -7 -52 -11 -94 l-7 -78 30 11 c21 7 31 19 36 40 7
34 21 37 44 9 13 -16 24 -19 50 -14 27 5 32 11 32 34 0 39 -46 56 -80 30 -30
-22 -40 -17 -40 18 -1 17 -10 34 -25 44 -23 17 -24 17 -29 0z"/>
<path d="M1755 5610 c-3 -5 -1 -18 4 -27 9 -16 10 -14 11 10 0 28 -5 34 -15
17z"/>
<path d="M1586 5568 c-3 -17 -6 -60 -6 -95 0 -48 3 -63 13 -59 6 3 20 9 30 12
9 4 17 13 17 21 0 8 5 23 11 35 l11 20 22 -21 c17 -16 30 -20 54 -15 28 6 32
10 32 40 0 32 -2 34 -34 34 -18 0 -39 -7 -46 -15 -20 -24 -40 -18 -40 13 0 19
-8 32 -29 43 -29 17 -29 17 -35 -13z"/>
<path d="M1755 5420 c-3 -11 -2 -28 4 -37 8 -15 10 -11 11 20 0 41 -5 47 -15
17z"/>
<path d="M1583 5314 c2 -47 7 -87 10 -90 2 -3 16 1 31 7 19 9 26 20 26 41 0
31 15 36 41 12 12 -11 27 -14 48 -9 27 6 31 11 31 41 0 32 -2 34 -33 34 -21 0
-41 -8 -52 -20 -21 -24 -31 -19 -38 18 -5 24 -39 52 -64 52 -3 0 -3 -39 0 -86z"/>
<path d="M1756 5234 c-3 -9 -2 -23 4 -32 7 -14 9 -10 10 16 0 35 -5 41 -14 16z"/>
<path d="M1596 5113 c4 -49 8 -90 10 -92 10 -11 54 32 54 53 0 32 9 37 36 20
15 -11 33 -14 54 -9 25 5 30 11 30 35 0 24 -5 30 -31 35 -24 6 -36 2 -55 -16
-21 -20 -26 -21 -34 -9 -5 8 -10 22 -10 31 0 13 -37 39 -56 39 -3 0 -2 -39 2
-87z"/>
<path d="M3863 2316 c-26 -18 -57 -36 -68 -40 -11 -3 -36 -19 -55 -35 -31 -27
-33 -31 -22 -55 9 -20 19 -26 44 -26 l33 1 -40 24 c-42 26 -43 33 -1 14 19 -9
29 -8 47 5 13 9 31 16 40 16 11 0 20 11 24 30 5 21 13 30 26 30 34 0 59 19 59
45 0 35 -27 32 -87 -9z"/>
<path d="M3616 2215 c-17 -27 -20 -53 -8 -73 13 -19 59 1 67 30 4 13 12 26 18
29 5 4 -4 14 -21 23 -39 20 -37 21 -56 -9z"/>
<path d="M3785 2126 c-12 -18 -15 -35 -10 -57 7 -31 7 -32 -26 -26 -25 5 -41
1 -59 -13 l-25 -19 75 -35 c41 -20 80 -36 87 -36 24 0 14 48 -14 70 -27 21
-27 22 -9 36 11 8 23 14 27 14 8 0 33 69 27 75 -1 2 -15 6 -30 10 -21 5 -30 2
-43 -19z"/>
<path d="M3513 2127 c-13 -7 -23 -14 -23 -17 0 -4 137 -80 161 -88 5 -2 9 9 9
25 0 58 -92 108 -147 80z"/>
<path d="M4062 2029 c3 -8 21 -15 41 -17 40 -3 46 -17 25 -52 -10 -15 -10 -22
0 -32 22 -22 13 -38 -20 -38 -18 0 -42 -7 -52 -15 -23 -18 -36 -11 -36 20 0
47 -107 87 -147 55 -29 -23 -20 -31 73 -65 38 -14 78 -30 89 -35 19 -9 164
-60 172 -60 13 0 -14 59 -35 76 l-25 20 26 20 c18 13 27 30 29 53 3 32 1 34
-47 51 -95 33 -98 33 -93 19z"/>
<path d="M4247 1959 c15 -16 27 -19 44 -14 23 8 23 9 -11 21 -50 18 -57 17
-33 -7z"/>
<path d="M4607 1862 c14 -12 31 -18 43 -15 25 7 37 23 17 23 -8 0 -30 3 -48 6
l-34 5 22 -19z"/>
</g>
</svg>
